<svg xmlns="http://www.w3.org/2000/svg" viewBox="0 0 60 60" width="60" height="60">
  <rect x="12" y="4" width="36" height="48" rx="3" fill="#fff" stroke="#4a4a4a" stroke-width="2"/>
  <path d="M12 4h24l12 12v36a3 3 0 0 1-3 3H15a3 3 0 0 1-3-3V4z" fill="#f5f5f5" stroke="#4a4a4a" stroke-width="2"/>
  <path d="M36 4v9a3 3 0 0 0 3 3h9" fill="#ddd" stroke="#4a4a4a" stroke-width="2" fill-opacity="0.5"/>
  <line x1="20" y1="24" x2="40" y2="24" stroke="#ff6d5a" stroke-width="2.5" stroke-linecap="round"/>
  <line x1="20" y1="30" x2="36" y2="30" stroke="#4a4a4a" stroke-width="2" stroke-linecap="round"/>
  <line x1="20" y1="36" x2="38" y2="36" stroke="#4a4a4a" stroke-width="2" stroke-linecap="round"/>
  <line x1="20" y1="42" x2="32" y2="42" stroke="#4a4a4a" stroke-width="2" stroke-linecap="round"/>
  <circle cx="46" cy="46" r="11" fill="#ff6d5a" stroke="#fff" stroke-width="2"/>
  <text x="46" y="50" text-anchor="middle" fill="#fff" font-family="Arial,sans-serif" font-size="12" font-weight="bold">T</text>
</svg>
